Patient4_TMGait_0pt6_02_right_23_GRF.mot
version=1
nRows=32
nColumns=19
inDegrees=no
endheader
time	F1x	F1y	F1z	M1x	M1y	M1z	F2x	F2y	F2z	M2x	M2y	M2z	EC1x	EC1y	EC1z	EC2x	EC2y	EC2z
27.6	-7.5023	760.5418	63.7425	-254.498	-68.2064	813.199	1.8121	1.1581	-8.0598	4.1564	10.471	5.185	-0.0592	0.0182	-0.0073	-0.0462	0.0165	0.9585
27.6116	-6.9819	746.5495	64.64	-249.5322	-68.6444	797.9201	1.1768	1.66	-5.5661	3.2391	7.2428	4.572	-0.0592	0.0182	-0.0073	-0.0462	0.0165	0.9585
27.6233	-6.2324	731.7748	65.2124	-244.3362	-68.6091	780.9892	0.60125	2.1477	-3.3719	2.4644	4.4398	4.1487	-0.0592	0.0182	-0.0073	-0.0462	0.0165	0.9585
27.6349	-5.3326	717.5179	65.3215	-239.3875	-67.9899	763.7318	0.13304	2.5867	-1.6566	1.8868	2.2647	3.9225	-0.0592	0.0182	-0.0073	-0.0462	0.0165	0.9585
27.6466	-4.3579	704.9532	64.8888	-235.1221	-66.7435	747.4041	-0.21211	2.9514	-0.43401	1.5047	0.72502	3.8461	-0.0592	0.0182	-0.0073	-0.0462	0.0165	0.9585
27.6582	-3.309	695.0412	63.8935	-231.8988	-64.8722	733.0648	-0.45509	3.2284	0.34522	1.2838	-0.24696	3.8661	-0.0592	0.0182	-0.0073	-0.0462	0.0165	0.9585
27.6699	-2.14	688.4996	62.3811	-229.9812	-62.4232	721.5447	-0.61653	3.3898	0.76986	1.1694	-0.76196	3.8879	-0.0592	0.0182	-0.0073	-0.0462	0.0165	0.9585
27.6815	-0.74086	685.8076	60.404	-229.5339	-59.4306	713.4023	-0.75083	3.3933	0.94174	1.0971	-0.93757	3.8141	-0.0592	0.0182	-0.0073	-0.0462	0.0165	0.9585
27.6931	0.98925	687.1439	58.0985	-230.5963	-56.0052	708.9103	-0.86985	3.168	0.93959	0.99637	-0.87894	3.5214	-0.0592	0.0182	-0.0073	-0.0462	0.0165	0.9585
27.7048	3.1506	692.3366	55.5737	-233.0711	-52.2292	707.98	-1.0083	2.6312	0.84283	0.79852	-0.68195	2.8918	-0.0592	0.0182	-0.0073	-0.0462	0.0165	0.9585
27.7164	5.7811	700.8015	53.0035	-236.7017	-48.2572	710.1462	-1.1595	1.6671	0.69247	0.43195	-0.41378	1.7629	-0.0592	0.0182	-0.0073	-0.0462	0.0165	0.9585
27.7281	8.8878	711.5265	50.5008	-241.0794	-44.1964	714.5369	-1.3162	0.18051	0.52712	-0.16063	-0.13511	0.013231	-0.0592	0.0182	-0.0073	-0.0462	0.0165	0.9585
27.7397	12.3883	723.1841	48.207	-245.6811	-40.2072	719.9979	-1.4271	-1.9116	0.37081	-1.0215	0.10147	-2.4661	-0.0592	0.0182	-0.0073	-0.0462	0.0165	0.9585
27.7514	16.186	734.2627	46.1946	-249.9268	-36.3933	725.1803	-1.4306	-4.5759	0.24356	-2.1426	0.24425	-5.6246	-0.0592	0.0182	-0.0073	-0.0462	0.0165	0.9585
27.763	20.1273	743.2812	44.5205	-253.2532	-32.8638	728.7874	-1.2016	-7.6489	0.16859	-3.4499	0.21514	-9.2704	-0.0592	0.0182	-0.0073	-0.0462	0.0165	0.9585
27.7746	24.073	749.0069	43.2343	-255.1967	-29.7258	729.7233	-0.6167	-10.6808	0.17118	-4.747	-0.070967	-12.8649	-0.0592	0.0182	-0.0073	-0.0462	0.0165	0.9585
27.7863	27.8792	750.7232	42.3881	-255.4854	-27.0918	727.3671	0.50148	-12.8587	0.286	-5.675	-0.71998	-15.4611	-0.0592	0.0182	-0.0073	-0.0462	0.0165	0.9585
27.7979	31.4842	748.3595	42.082	-254.0929	-25.0949	721.6486	2.2887	-12.871	0.54391	-5.6613	-1.8194	-15.5002	-0.0592	0.0182	-0.0073	-0.0462	0.0165	0.9585
27.8096	34.8871	742.472	42.3709	-251.2361	-23.7999	713.0422	4.8698	-8.8523	0.98502	-3.8929	-3.4503	-10.7845	-0.0592	0.0182	-0.0073	-0.0462	0.0165	0.9585
27.8212	38.1918	734.0081	43.2721	-247.2891	-23.1989	702.3337	8.2276	1.6284	1.6269	0.68084	-5.6107	1.5695	-0.0592	0.0182	-0.0073	-0.0462	0.0165	0.9585
27.8329	41.5258	723.8851	44.674	-242.6392	-23.1478	690.2795	12.165	21.3747	2.4764	9.2694	-8.1951	24.8751	-0.0592	0.0182	-0.0073	-0.0462	0.0165	0.9585
27.8445	45.0068	712.5691	46.3607	-237.534	-23.4052	677.2231	16.1232	53.1954	3.488	23.076	-10.884	62.4608	-0.0592	0.0182	-0.0073	-0.0462	0.0165	0.9585
27.8561	48.6624	699.8047	47.9948	-231.9842	-23.6443	662.8744	19.0994	99.1036	4.5266	42.9624	-13.0589	116.7128	-0.0592	0.0182	-0.0073	-0.0462	0.0165	0.9585
27.8678	52.3994	684.4812	49.1686	-225.7152	-23.5172	646.1847	19.4607	159.1881	5.3408	68.9476	-13.7114	187.7668	-0.0592	0.0182	-0.0073	-0.0462	0.0165	0.9585
27.8794	55.9512	664.8103	49.4716	-218.2139	-22.7336	625.5389	15.1074	230.0746	5.5163	99.548	-11.4784	271.6637	-0.0592	0.0182	-0.0073	-0.0462	0.0165	0.9585
27.8911	58.9383	638.7486	48.5535	-208.8654	-21.0938	599.1134	4.7876	304.1168	4.3721	131.3969	-5.0909	359.4551	-0.0592	0.0182	-0.0073	-0.0462	0.0165	0.9585
27.9027	60.8862	604.6273	46.264	-197.1497	-18.6186	565.455	-9.1759	371.2751	0.54955	160.0644	5.8862	439.2612	-0.0592	0.0182	-0.0073	-0.0462	0.0165	0.9585
27.9144	61.3819	561.776	42.7243	-182.839	-15.5538	524.003	-22.986	424.1811	-6.2006	182.3543	19.951	502.0417	-0.0592	0.0182	-0.0073	-0.0462	0.0165	0.9585
27.926	60.1618	510.8154	38.3632	-166.0801	-12.3575	475.402	-34.4902	462.2645	-14.8044	198.0272	34.9459	546.7887	-0.0592	0.0182	-0.0073	-0.0462	0.0165	0.9585
27.9376	57.1923	453.3324	33.7066	-147.3199	-9.4865	421.1268	-42.7041	489.7889	-23.8809	209.0038	48.8632	578.3811	-0.0592	0.0182	-0.0073	-0.0462	0.0165	0.9585
27.9493	52.5565	391.606	29.1392	-127.2327	-7.2369	363.278	-47.6588	512.2183	-31.8423	217.7589	59.9805	603.2662	-0.0592	0.0182	-0.0073	-0.0462	0.0165	0.9585
27.9609	46.4393	328.2389	24.8428	-106.6216	-5.6992	304.2189	-49.9611	533.9934	-38.1505	226.2958	67.9307	626.7787	-0.0592	0.0182	-0.0073	-0.0462	0.0165	0.9585
